# xmcd
#
# Track frame offsets:
#	150
#	17967
#	37879
#	60363
#	77651
#	96494
#	113908
#	133287
#	153038
#	172844
#	193385
#
# Disc length: 2784 seconds
#
# Revision: 0
# Processed by: cddbd v1.5.2PL0 Copyright (c) Steve Scherf et al.
# Submitted via: dBpowerAMP V4.0
#
DISCID=8a0ade0b
DTITLE=Maxine Braham - If...
DYEAR=2004
DGENRE=Soul
TTITLE0=Wherever
TTITLE1=I Wish
TTITLE2=If...
TTITLE3=Open Your Heart
TTITLE4=No Need To Pretend
TTITLE5=I Miss You So
TTITLE6=Baby
TTITLE7=No Pain No Gain
TTITLE8=There Was A Time
TTITLE9=Did I Tell You?
TTITLE10=Love Heals
EXTD=
EXTT0=
EXTT1=
EXTT2=
EXTT3=
EXTT4=
EXTT5=
EXTT6=
EXTT7=
EXTT8=
EXTT9=
EXTT10=
PLAYORDER=
